<svg width="605" height="522" viewBox="0 0 605 522" fill="none" xmlns="http://www.w3.org/2000/svg">
<g clip-path="url(#clip0_332_1228)">
<path d="M311.071 439.535L328.672 434.349L323.536 452L328.672 469.601L311.071 464.465L293.42 469.601L298.606 452L293.42 434.349L311.071 439.535Z" fill="black" stroke="white" stroke-miterlimit="10"/>
</g>
<g clip-path="url(#clip1_332_1228)">
<path d="M125.02 352.509L156.496 369.659L125.02 386.947L107.801 418.354L90.582 386.947L59.106 369.659L90.582 352.509L107.801 320.964L125.02 352.509Z" fill="black" stroke="white" stroke-miterlimit="10"/>
</g>
<path d="M345.658 208.187C414.097 245.937 472.83 285.935 512.463 320.077C532.282 337.151 547.305 352.742 556.378 365.842C560.916 372.393 563.949 378.297 565.36 383.433C566.772 388.568 566.552 392.89 564.652 396.333C562.752 399.777 559.214 402.268 554.119 403.813C549.021 405.359 542.409 405.943 534.448 405.6C518.528 404.913 497.326 400.524 472.312 392.868C422.292 377.558 357.129 349.216 288.69 311.465C220.251 273.715 161.517 233.717 121.884 199.575C102.065 182.501 87.0432 166.91 77.9696 153.81C73.4323 147.259 70.3987 141.355 68.9869 136.218C67.5757 131.084 67.7953 126.763 69.6947 123.319C71.5943 119.875 75.1328 117.384 80.2281 115.839C85.3259 114.293 91.9386 113.709 99.8999 114.052C115.82 114.739 137.021 119.128 162.035 126.784C212.056 142.094 277.218 170.436 345.658 208.187Z" stroke="black"/>
<path d="M325.427 244.861C393.867 282.611 452.6 322.609 492.232 356.751C512.052 373.825 527.074 389.416 536.148 402.516C540.685 409.066 543.718 414.971 545.13 420.107C546.541 425.241 546.321 429.563 544.422 433.007C542.522 436.451 538.984 438.942 533.889 440.487C528.791 442.033 522.179 442.617 514.218 442.274C498.297 441.587 477.096 437.198 452.082 429.542C402.061 414.232 336.899 385.89 268.46 348.139C200.02 310.389 141.287 270.391 101.654 236.249C81.8349 219.175 66.8128 203.584 57.7392 190.484C53.2018 183.933 50.1682 178.029 48.7564 172.892C47.3453 167.758 47.5648 163.437 49.4642 159.993C51.3638 156.549 54.9023 154.057 59.9977 152.512C65.0954 150.966 71.7081 150.383 79.6694 150.726C95.5897 151.413 116.791 155.802 141.805 163.458C191.825 178.768 256.988 207.11 325.427 244.861Z" stroke="black"/>
<path d="M305.199 281.535C373.638 319.285 432.371 359.283 472.004 393.425C491.823 410.499 506.846 426.09 515.919 439.19C520.457 445.741 523.49 451.645 524.901 456.782C526.313 461.916 526.093 466.238 524.193 469.682C522.293 473.125 518.755 475.616 513.66 477.161C508.562 478.707 501.95 479.292 493.989 478.948C478.069 478.261 456.867 473.872 431.853 466.216C381.833 450.906 316.671 422.564 248.231 384.814C179.792 347.063 121.058 307.065 81.4254 272.923C61.6064 255.849 46.5843 240.258 37.5107 227.158C32.9733 220.608 29.9397 214.703 28.5279 209.566C27.1168 204.433 27.3363 200.111 29.2357 196.667C31.1353 193.223 34.6738 190.732 39.7691 189.187C44.8669 187.641 51.4796 187.057 59.4409 187.4C75.3612 188.087 96.5625 192.476 121.576 200.132C171.597 215.442 236.759 243.784 305.199 281.535Z" stroke="black"/>
<circle cx="131.572" cy="111.5" r="15.5" fill="#B9FF66"/>
<circle cx="421.072" cy="442" r="10" fill="#B9FF66"/>
<circle cx="81.5723" cy="71.5" r="23.5" fill="black"/>
<path d="M310.507 383.59C304.203 385.744 296.999 381.475 294.493 374.071L255.494 259.81L278.282 252.015L317.32 366.433C319.826 373.758 316.772 381.436 310.507 383.59Z" fill="black"/>
<path d="M307.1 385C305.26 385 303.381 384.569 301.579 383.668C297.938 381.866 295.041 378.498 293.631 374.345L254.632 260.084C254.476 259.653 254.711 259.144 255.18 258.987L277.969 251.192C278.204 251.113 278.439 251.113 278.634 251.231C278.83 251.348 278.987 251.505 279.065 251.74L318.103 366.159C320.726 373.914 317.437 382.101 310.742 384.412C309.606 384.804 308.353 385 307.1 385ZM256.59 260.358L295.315 373.797C296.568 377.518 299.152 380.574 302.363 382.14C304.947 383.394 307.727 383.629 310.233 382.767C316.028 380.769 318.847 373.562 316.498 366.707L277.734 253.111L256.59 260.358Z" fill="black"/>
<path d="M274.249 153.382L200.519 205.988L171.819 235.798L160.542 255.736L160.503 255.892C158.271 259.339 159.563 267.291 163.753 275.399C167.864 283.39 173.659 288.953 177.731 289.266L177.614 289.344L199.266 291.695L239.792 285.231L325.816 254.443L432.749 272.775L433.493 272.814C406.633 267.8 370.375 231.88 344.023 181.076C317.711 130.31 309.332 80.132 320.883 55.376H320.843L274.836 152.128L274.249 153.382Z" fill="#B9FF66"/>
<path d="M451.264 270.603C477.692 256.873 472.582 194.629 439.85 131.577C407.119 68.5247 359.161 28.5412 332.734 42.2711C306.306 56.001 311.417 118.245 344.148 181.297C376.879 244.349 424.837 284.333 451.264 270.603Z" fill="white"/>
<path d="M439.641 274.185C428.129 274.185 414.269 267.761 399.35 255.266C379.029 238.266 359.099 212.06 343.241 181.428C319.239 135.05 309.332 87.4964 318.025 60.2726C320.922 51.1849 325.778 44.8392 332.395 41.4313C345.551 34.6939 364.072 40.4129 384.589 57.5698C404.91 74.57 424.84 100.775 440.698 131.407C464.74 177.786 474.646 225.339 465.914 252.563C463.017 261.651 458.162 267.996 451.544 271.404C447.981 273.284 443.987 274.185 439.641 274.185ZM344.376 40.4129C340.343 40.4129 336.585 41.2355 333.217 42.9982C326.992 46.171 322.45 52.2033 319.709 60.8601C311.134 87.6922 321.001 134.737 344.807 180.723C377.228 243.279 424.762 283.312 450.8 269.955C457.026 266.782 461.568 260.75 464.309 252.093C472.884 225.261 463.017 178.216 439.21 132.23C410.979 77.782 371.354 40.4129 344.376 40.4129Z" fill="black"/>
<path d="M439.641 274.185C428.129 274.185 414.269 267.761 399.35 255.266C379.029 238.265 359.099 212.06 343.241 181.428C319.239 135.05 309.332 87.4963 318.025 60.2725C320.922 51.1848 325.778 44.8391 332.395 41.4312C341.205 36.8874 352.716 38.0234 365.677 44.6824C378.089 51.0673 391.519 62.3877 404.597 77.3902C404.91 77.7427 404.871 78.2911 404.519 78.6045C404.166 78.9179 403.618 78.8787 403.305 78.5262C376.758 48.0511 349.897 34.4196 333.217 42.9981C326.992 46.1709 322.45 52.2033 319.709 60.86C311.134 87.6922 321.001 134.737 344.807 180.723C372.999 235.132 412.663 272.54 439.602 272.54C443.635 272.54 447.394 271.717 450.761 269.955C456.987 266.782 461.529 260.75 464.27 252.093C472.845 225.261 462.978 178.216 439.171 132.23C432.084 118.52 424.096 105.632 415.521 93.9204C415.247 93.5286 415.326 92.9803 415.717 92.7061C416.109 92.4319 416.657 92.5102 416.931 92.9019C425.584 104.692 433.572 117.658 440.737 131.446C464.74 177.785 474.646 225.339 465.914 252.563C463.017 261.65 458.162 267.996 451.544 271.404C447.981 273.284 443.987 274.185 439.641 274.185Z" fill="black"/>
<path d="M391.301 190.339C397.424 187.158 396.246 172.751 388.671 158.159C381.096 143.567 369.993 134.316 363.871 137.497C357.748 140.678 358.926 155.085 366.501 169.677C374.075 184.269 385.179 193.52 391.301 190.339Z" fill="#B9FF66"/>
<path d="M388.622 191.848C381.887 191.848 372.49 183.152 365.716 170.03C360.078 159.14 357.768 147.937 359.843 141.474C360.587 139.202 361.801 137.596 363.484 136.734C370.141 133.326 381.535 142.61 389.444 157.847C395.083 168.737 397.393 179.94 395.318 186.403C394.574 188.675 393.36 190.281 391.676 191.143C390.736 191.613 389.718 191.848 388.622 191.848ZM366.539 137.714C365.716 137.714 364.933 137.87 364.268 138.223C362.975 138.889 362.036 140.142 361.448 141.983C359.53 148.016 361.762 158.748 367.204 169.246C374.409 183.152 385.255 192.514 390.854 189.615C392.146 188.949 393.086 187.696 393.673 185.855C395.592 179.783 393.321 169.09 387.917 158.592C381.574 146.41 372.49 137.714 366.539 137.714Z" fill="#B9FF66"/>
<path d="M433.69 259.574C423.588 259.574 411.45 253.934 398.372 243.005C380.595 228.12 363.132 205.166 349.271 178.373C328.245 137.792 319.591 96.153 327.188 72.2978C329.733 64.307 334.001 58.7447 339.835 55.7285C353.226 48.8736 372.921 56.7861 393.908 77.4292C394.26 77.7818 394.26 78.291 393.908 78.6435C393.556 78.9961 393.047 78.9961 392.694 78.6435C372.255 58.5488 353.265 50.7146 340.618 57.2562C335.214 60.0373 331.26 65.2471 328.832 72.8071C321.353 96.2313 329.968 137.361 350.798 177.589C375.427 225.182 410.079 257.851 433.651 257.851C437.175 257.851 440.424 257.107 443.4 255.618C448.804 252.837 452.758 247.627 455.186 240.067C462.665 216.643 454.051 175.513 433.22 135.285C426.916 123.142 419.868 111.743 412.272 101.441C411.998 101.049 412.076 100.501 412.468 100.227C412.859 99.9526 413.407 100.031 413.681 100.423C421.356 110.842 428.443 122.28 434.786 134.501C455.812 175.082 464.466 216.721 456.87 240.576C454.325 248.567 450.057 254.13 444.223 257.146C441.012 258.752 437.488 259.574 433.69 259.574Z" fill="black"/>
<path d="M199.306 292.517C199.267 292.517 199.228 292.517 199.228 292.517L177.575 290.167C177.458 290.167 177.34 290.128 177.223 290.05C172.759 289.344 167.121 283.704 163.01 275.791C158.624 267.448 157.332 259.3 159.72 255.462L159.76 255.344L171.036 235.367C171.075 235.289 171.115 235.249 171.154 235.21L199.855 205.401C199.894 205.362 199.933 205.323 199.972 205.284L273.506 152.794L320.022 54.9845C320.139 54.7886 320.296 54.632 320.531 54.5536C320.766 54.4753 321.001 54.4753 321.197 54.5928C321.627 54.7886 321.823 55.2979 321.627 55.7288C309.842 80.994 319.161 131.211 344.768 180.645C370.415 230.157 406.164 266.821 433.69 271.874C434.12 271.953 434.434 272.344 434.394 272.814C434.355 273.245 433.964 273.559 433.533 273.598L432.789 273.559C432.75 273.559 432.711 273.559 432.672 273.559L325.934 255.266L240.106 285.976C240.067 285.976 239.989 286.015 239.95 286.015L199.424 292.478C199.385 292.517 199.346 292.517 199.306 292.517ZM178.202 288.522L199.306 290.794L239.636 284.331L325.621 253.581C325.778 253.542 325.895 253.503 326.052 253.542L422.139 269.994C396.179 258.595 365.834 224.947 343.319 181.468C320.962 138.301 310.977 94.4689 316.459 66.775L275.033 153.735C274.954 153.852 274.876 153.97 274.759 154.048L201.108 206.655L172.524 236.307L161.248 256.284C161.248 256.323 161.208 256.363 161.208 256.363C159.172 259.535 160.543 267.37 164.497 275.008C168.374 282.49 173.973 288.13 177.81 288.404C177.967 288.404 178.084 288.444 178.202 288.522Z" fill="black"/>
<path d="M274.365 153.069L320.843 55.3369H320.882C309.331 80.093 317.749 130.271 344.023 181.037C370.374 231.881 406.632 267.8 433.571 272.736L432.827 272.697L326.05 254.404L323.584 253.973C311.171 251.779 294.609 235.641 282.745 212.608C270.567 188.988 268.414 165.447 273.817 154.244L274.365 153.069Z" fill="white"/>
<path d="M433.571 273.598C433.532 273.598 433.571 273.598 433.571 273.598L432.788 273.558C432.749 273.558 432.71 273.558 432.67 273.558L325.894 255.266L323.427 254.835C310.31 252.524 293.669 235.719 281.962 213.039C268.688 187.265 268.023 164.311 273.034 153.891L273.622 152.716L320.099 55.0236C320.217 54.8277 320.373 54.671 320.608 54.5927C320.843 54.5143 321.078 54.5143 321.274 54.6319C321.704 54.8277 321.9 55.3369 321.704 55.7678C309.919 81.0331 319.238 131.25 344.845 180.684C370.492 230.196 406.241 266.86 433.767 271.913C434.197 271.992 434.511 272.383 434.472 272.853C434.354 273.245 434.002 273.598 433.571 273.598ZM316.379 66.7749L275.149 153.46L274.562 154.635C269.589 164.977 271.038 188.087 283.489 212.217C294.961 234.466 311.133 250.918 323.74 253.111L326.207 253.542L422.098 269.994C396.139 258.595 365.793 224.947 343.279 181.467C320.921 138.301 310.937 94.4687 316.379 66.7749Z" fill="black"/>
<path d="M198.131 292.4C198.092 292.4 198.053 292.4 198.053 292.4L177.536 290.206C177.418 290.206 177.301 290.167 177.183 290.089C172.72 289.384 167.081 283.743 162.97 275.831C158.624 267.448 157.331 259.3 159.72 255.462L159.759 255.344L171.036 235.367C171.271 234.936 171.78 234.819 172.21 235.054C172.641 235.289 172.759 235.798 172.524 236.229L161.247 256.284C161.247 256.323 161.208 256.363 161.208 256.363C159.172 259.535 160.542 267.37 164.497 275.008C168.373 282.49 173.972 288.13 177.81 288.404C177.927 288.404 178.084 288.444 178.162 288.522L198.21 290.676C198.679 290.716 199.032 291.146 198.954 291.616C198.914 292.047 198.562 292.4 198.131 292.4Z" fill="black"/>
<path d="M199.501 291.538C192.845 291.068 183.526 281.628 176.752 268.584C169.587 254.756 167.903 240.459 172.289 235.367L160.581 255.736L160.503 255.892C158.271 259.339 159.563 267.291 163.753 275.399C167.864 283.39 173.659 288.953 177.731 289.266L177.614 289.344L199.501 291.538Z" fill="white"/>
<path d="M199.502 292.4C199.463 292.4 199.463 292.4 199.423 292.4C199.267 292.4 199.071 292.36 198.914 292.36L177.536 290.206C177.418 290.206 177.301 290.167 177.183 290.088C172.72 289.383 167.081 283.743 162.97 275.83C158.624 267.448 157.331 259.3 159.72 255.461L159.759 255.344L170.057 237.404C170.449 236.385 170.958 235.484 171.584 234.74C171.858 234.387 172.367 234.348 172.72 234.583C173.072 234.857 173.189 235.327 172.954 235.719L171.506 238.187C169.196 244.415 171.467 256.636 177.418 268.074C183.879 280.57 192.689 289.697 198.993 290.519L199.463 290.559C199.932 290.598 200.285 291.029 200.246 291.499C200.285 292.047 199.932 292.4 199.502 292.4ZM178.162 288.522L193.119 290.049C187.364 286.367 181.02 278.768 175.969 268.975C171.075 259.535 168.647 249.742 169.039 242.692L161.247 256.284C161.247 256.323 161.208 256.362 161.208 256.362C159.172 259.535 160.542 267.369 164.497 275.008C168.373 282.489 173.972 288.13 177.81 288.404C177.927 288.404 178.084 288.443 178.162 288.522Z" fill="black"/>
<path d="M238.343 285.388L240.066 285.035C230.747 286.994 216.025 272.892 205.648 252.876C195.037 232.429 193.04 212.021 200.558 205.988L199.579 206.968L172.366 235.249C167.903 240.263 169.547 254.639 176.752 268.544C183.682 281.941 193.51 291.499 200.206 291.459L238.343 285.388Z" fill="black"/>
<path d="M200.167 292.36C193.041 292.36 183.135 282.764 175.97 268.975C168.687 254.874 166.846 240.146 171.702 234.701L198.405 206.968C198.875 206.341 199.424 205.793 200.011 205.323C200.363 205.048 200.872 205.088 201.185 205.401C201.499 205.753 201.499 206.263 201.185 206.576L199.658 208.182C194.216 215.468 196.918 234.113 206.432 252.484C216.691 272.305 231.022 285.897 239.793 284.252L239.91 284.213C240.38 284.135 240.811 284.409 240.928 284.879C241.006 285.349 240.732 285.78 240.262 285.897C240.223 285.897 240.184 285.897 240.145 285.936L238.54 286.25H238.5L200.363 292.321C200.285 292.321 200.207 292.36 200.167 292.36ZM196.134 211.825L172.994 235.876C168.687 240.733 170.644 254.913 177.536 268.192C184.27 281.197 193.785 290.598 200.167 290.637L233.841 285.27C224.757 282.058 213.559 269.955 204.905 253.307C196.683 237.443 193.511 221.304 196.134 211.825Z" fill="black"/>
<path d="M363.876 137.479C357.729 140.612 358.629 155.145 366.46 169.638C379.577 193.885 390.032 191.025 391.246 190.594C391.285 190.594 391.285 190.634 391.246 190.634L368.731 208.77C362.114 199.486 355.81 189.145 350.015 177.981C344.494 167.288 339.835 156.633 336.154 146.292L363.876 137.479Z" fill="black"/>
<path d="M368.731 209.631C368.692 209.631 368.653 209.631 368.614 209.631C368.379 209.592 368.183 209.475 368.026 209.279C361.253 199.76 354.949 189.341 349.271 178.412C343.829 167.914 339.13 157.221 335.371 146.645C335.293 146.41 335.293 146.174 335.41 145.979C335.528 145.783 335.684 145.626 335.919 145.548L363.641 136.734C364.072 136.617 364.542 136.813 364.698 137.243C364.855 137.674 364.698 138.144 364.307 138.34C362.975 139.006 361.997 140.338 361.409 142.297C359.491 148.446 361.84 159.336 367.282 169.325C380.086 192.984 389.953 190.281 391.011 189.889C391.402 189.733 391.872 189.928 392.068 190.281C392.264 190.634 392.185 191.143 391.872 191.417L369.279 209.436C369.123 209.553 368.927 209.631 368.731 209.631ZM337.29 146.84C341.009 157.064 345.551 167.405 350.798 177.59C356.28 188.166 362.388 198.233 368.927 207.516L388.465 191.77C384.002 191.574 375.583 188.244 365.716 170.03C360 159.493 357.65 148.368 359.726 141.67C360 140.808 360.313 140.064 360.704 139.359L337.29 146.84Z" fill="black"/>
<path d="M479.721 81.5974C497.622 72.1937 504.545 50.1159 495.185 32.2852C485.825 14.4545 463.727 7.62311 445.827 17.0268C427.927 26.4305 421.004 48.5083 430.363 66.339C439.723 84.1697 461.821 91.0011 479.721 81.5974Z" fill="black"/>
<path d="M446.102 41.2352C447.825 38.8849 450.37 37.4356 453.268 37.1223C455.46 36.8872 457.497 37.3573 459.415 38.5324C460.394 39.12 461.255 39.8642 462.078 40.7652C462.665 39.7075 463.37 38.7674 464.192 37.984C465.797 36.4172 467.716 35.5162 469.87 35.2812C472.767 34.9678 475.586 35.8296 477.779 37.749C479.932 39.6292 481.303 42.3712 481.655 45.4657C482.008 48.6385 481.146 51.6939 478.954 55.0626C476.996 58.0787 474.02 61.2124 470.574 64.8945C469.4 66.1479 468.068 67.5581 466.698 69.0466C466.346 69.4383 465.837 69.7125 465.288 69.7517C464.74 69.83 464.231 69.6733 463.761 69.36C462.078 68.1848 460.472 67.0881 459.063 66.1479C454.912 63.3276 451.31 60.899 448.726 58.3921C445.828 55.611 444.34 52.7906 443.988 49.6178C443.675 46.5233 444.419 43.5463 446.102 41.2352Z" fill="white"/>
<path d="M581.27 83.5925C594.375 70.4829 594.375 49.2281 581.27 36.1185C568.166 23.0089 546.92 23.0089 533.815 36.1185C520.711 49.228 520.711 70.4829 533.815 83.5925C546.92 96.7021 568.166 96.7021 581.27 83.5925Z" fill="#B9FF66"/>
<path d="M557.537 94.2732C538.585 94.2732 523.119 78.8399 523.119 59.8419C523.119 40.8832 538.546 25.4106 557.537 25.4106C576.527 25.4106 591.954 40.844 591.954 59.8419C591.954 78.8007 576.527 94.2732 557.537 94.2732ZM557.537 27.1342C539.525 27.1342 524.842 41.7841 524.842 59.8419C524.842 77.8606 539.486 92.5497 557.537 92.5497C575.548 92.5497 590.231 77.8998 590.231 59.8419C590.231 41.8233 575.587 27.1342 557.537 27.1342Z" fill="#B9FF66"/>
<path d="M566.62 63.1713C564.741 63.1713 563.096 64.0723 562 65.4824L550.684 61.0561C550.684 60.8994 550.723 60.7819 550.723 60.6252C550.723 60.351 550.684 60.0768 550.645 59.8026L562.235 54.4362C563.292 55.6505 564.858 56.4339 566.62 56.4731C569.831 56.4731 572.493 53.8486 572.493 50.5974C572.493 47.3462 569.87 44.6826 566.62 44.6826C563.409 44.6826 560.747 47.3071 560.747 50.5583C560.747 50.8325 560.786 51.1067 560.825 51.3809L549.235 56.7473C548.178 55.533 546.612 54.7496 544.85 54.7104C541.639 54.7104 538.977 57.3348 538.977 60.586C538.977 63.8372 541.6 66.5009 544.85 66.5009C546.729 66.5009 548.374 65.5999 549.47 64.1898L560.786 68.6161C560.786 68.7728 560.747 68.8903 560.747 69.047C560.747 72.2982 563.37 74.9618 566.62 74.9618C569.831 74.9618 572.493 72.3373 572.493 69.0861C572.454 65.8349 569.831 63.2105 566.62 63.1713Z" fill="black"/>
<path d="M567.065 189.993C582.431 179.322 586.292 158.283 575.688 142.999C565.084 127.715 544.03 123.975 528.663 134.645C513.297 145.315 509.436 166.355 520.04 181.639C530.645 196.923 551.698 200.663 567.065 189.993Z" fill="black"/>
<path d="M539.409 178.373L534.476 151.619C534.241 150.248 535.494 149.112 536.825 149.465L565.996 157.73C567.484 158.161 567.836 160.08 566.622 161.02L542.346 179.509C541.289 180.371 539.683 179.783 539.409 178.373Z" fill="white"/>
<path d="M547.534 299.582C566.51 290.34 574.45 267.553 565.269 248.686C556.088 229.819 533.262 222.016 514.285 231.258C495.309 240.499 487.369 263.286 496.55 282.153C505.731 301.02 528.557 308.823 547.534 299.582Z" fill="#B9FF66"/>
<path d="M530.716 304.347C526.644 304.347 522.493 303.72 518.46 302.349C508.593 299.059 500.605 292.165 495.985 282.842C491.365 273.559 490.66 263.022 493.988 253.151C500.88 232.821 523.041 221.735 543.441 228.512C553.308 231.802 561.296 238.696 565.916 248.019C570.537 257.303 571.241 267.84 567.913 277.711C562.353 294.006 547.044 304.347 530.716 304.347ZM531.107 228.277C515.484 228.277 500.84 238.148 495.554 253.738C492.383 263.178 493.048 273.245 497.473 282.098C501.898 290.99 509.533 297.61 518.969 300.743C538.469 307.206 559.651 296.63 566.23 277.202C569.401 267.761 568.736 257.694 564.311 248.842C559.886 239.95 552.251 233.33 542.815 230.196C538.938 228.865 534.984 228.277 531.107 228.277Z" fill="black"/>
<path d="M550.373 259.261C549.982 268.78 533.889 291.029 530.052 296.239C529.66 296.787 528.838 296.748 528.485 296.16C526.058 292.243 518.031 279.082 513.841 268.427C512.158 264.197 511.1 260.358 511.218 257.655C511.649 246.844 520.772 238.422 531.579 238.853C542.385 239.362 550.804 248.45 550.373 259.261Z" fill="black"/>
<path d="M537.128 264.827C540.63 261.324 540.63 255.644 537.128 252.141C533.627 248.638 527.949 248.638 524.448 252.141C520.946 255.644 520.946 261.324 524.448 264.827C527.949 268.33 533.627 268.33 537.128 264.827Z" fill="#B9FF66"/>
<defs>
<clipPath id="clip0_332_1228">
<rect width="36" height="36" fill="white" transform="translate(293.072 434)"/>
</clipPath>
<clipPath id="clip1_332_1228">
<rect width="70.3259" height="70.3259" fill="white" transform="translate(107.801 320) rotate(45)"/>
</clipPath>
</defs>
</svg>
